<?xml version="1.0" encoding="UTF-8"?>
<!DOCTYPE svg PUBLIC "-//W3C//DTD SVG 1.1 Tiny//EN" "http://www.w3.org/Graphics/SVG/1.1/DTD/svg11-tiny.dtd">
<svg baseProfile="tiny" height="60" viewBox="0 0 60 60" width="60" xmlns="http://www.w3.org/2000/svg" xmlns:xlink="http://www.w3.org/1999/xlink">
<g>
<rect fill="none" height="60" width="60"/>
<linearGradient gradientUnits="userSpaceOnUse" id="SVGID_1" x1="30" x2="30" y1="4.26" y2="55.61">
<stop offset="0" stop-color="#D1D7D9"/>
<stop offset="0.07" stop-color="#D1D7D9"/>
<stop offset="0.26" stop-color="#BDC2C4"/>
<stop offset="0.66" stop-color="#949DA1"/>
<stop offset="0.96" stop-color="#ADB3B5"/>
<stop offset="1" stop-color="#595C5E"/>
</linearGradient>
<path d="M46.574,52.922c0,1.557-1.264,2.818-2.822,2.818H16.248c-1.558,0-2.82-1.262-2.82-2.818V7.082 c0-1.556,1.262-2.82,2.82-2.82h27.504c1.559,0,2.822,1.264,2.822,2.82V52.922z" fill="url(#SVGID_1)"/>
<linearGradient gradientUnits="userSpaceOnUse" id="SVGID_2" x1="30" x2="30" y1="4.26" y2="54.73">
<stop offset="0" stop-color="#E4EBED"/>
<stop offset="0.07" stop-color="#E4EBED"/>
<stop offset="0.26" stop-color="#D6DCDE"/>
<stop offset="0.66" stop-color="#B2BEC2"/>
<stop offset="1" stop-color="#ADB3B5"/>
</linearGradient>
<path d="M43.752,4.262H16.248c-1.558,0-2.82,1.264-2.82,2.82v45.84c0,0.752,0.3,1.432,0.78,1.938 c-0.044-0.172-0.072-0.344-0.072-0.529v-1.408V8.492v-1.41c0-1.168,0.95-2.118,2.114-2.118h27.504c1.166,0,2.114,0.95,2.114,2.118 v1.41v44.43v1.408c0,0.186-0.028,0.357-0.072,0.529c0.481-0.506,0.782-1.186,0.782-1.938V7.082 C46.574,5.526,45.311,4.262,43.752,4.262z" fill="url(#SVGID_2)"/>
<linearGradient gradientUnits="userSpaceOnUse" id="SVGID_3" x1="30" x2="30" y1="7.84" y2="42.35">
<stop offset="0" stop-color="#B6BBBD"/>
<stop offset="1" stop-color="#F0FBFF"/>
</linearGradient>
<rect fill="url(#SVGID_3)" fill-opacity="0.6" height="34.554" stroke-opacity="0.6" width="28.918" x="15.542" y="7.788"/>
<linearGradient gradientUnits="userSpaceOnUse" id="SVGID_4" x1="30" x2="30" y1="8.54" y2="41.64">
<stop offset="0" stop-color="#6E6E6E"/>
<stop offset="1" stop-color="#333333"/>
</linearGradient>
<rect fill="url(#SVGID_4)" height="33.146" width="27.504" x="16.248" y="8.492"/>
<linearGradient gradientUnits="userSpaceOnUse" id="SVGID_5" x1="30" x2="30" y1="9.25" y2="40.94">
<stop offset="0" stop-color="#3BC8EB"/>
<stop offset="0.39" stop-color="#2D9BD2"/>
<stop offset="0.89" stop-color="#1347BA"/>
<stop offset="1" stop-color="#1347BA"/>
</linearGradient>
<rect fill="url(#SVGID_5)" height="31.735" width="26.094" x="16.954" y="9.198"/>
<linearGradient gradientUnits="userSpaceOnUse" id="SVGID_6" x1="30" x2="30" y1="9.75" y2="22.36">
<stop offset="0" stop-color="#85EFFF"/>
<stop offset="1" stop-color="#3BA1D9"/>
</linearGradient>
<polygon fill="url(#SVGID_6)" points="43.046,20.48 16.954,23.3 16.954,9.904 43.046,9.904 "/>
<rect fill="#9FE4FF" height="0.708" width="26.094" x="16.954" y="9.198"/>
<linearGradient gradientUnits="userSpaceOnUse" id="SVGID_7" x1="30.2" x2="30.2" y1="7.82" y2="4.99">
<stop offset="0" stop-color="#FFFFFF"/>
<stop offset="1" stop-color="#D1D7D9"/>
</linearGradient>
<path d="M27.088,7.788c-0.792,0-1.412-0.516-1.412-1.176V6.14c0-0.658,0.622-1.176,1.412-1.176h6.238 c0.79,0,1.408,0.518,1.408,1.176v0.47c0,0.66-0.621,1.176-1.408,1.176h-6.238V7.788z" fill="url(#SVGID_7)"/>
<linearGradient gradientUnits="userSpaceOnUse" id="SVGID_8" x1="30.21" x2="30.21" y1="5.38" y2="7.2">
<stop offset="0" stop-color="#6C7375"/>
<stop offset="1" stop-color="#BDC2C4"/>
</linearGradient>
<path d="M34.034,6.612c0,0.26-0.318,0.47-0.708,0.47h-6.238c-0.39,0-0.708-0.21-0.708-0.47V6.14 c0-0.262,0.316-0.468,0.708-0.468h6.238c0.388,0,0.708,0.208,0.708,0.468V6.612z" fill="url(#SVGID_8)"/>
<linearGradient gradientUnits="userSpaceOnUse" id="SVGID_9" x1="29.89" x2="29.89" y1="43.08" y2="53.56">
<stop offset="0" stop-color="#B6BBBD"/>
<stop offset="1" stop-color="#FFFFFF"/>
</linearGradient>
<path d="M27.344,53.626c-1.512,0-2.744-1.216-2.744-2.712 V45.76c0-1.494,1.232-2.71,2.744-2.71h5.094c1.515,0,2.744,1.216,2.744,2.71v5.154c0,1.496-1.229,2.712-2.744,2.712H27.344z" fill="url(#SVGID_9)" fill-opacity="0.6" stroke-opacity="0.6"/>
<path d="M27.34,52.922c-1.122,0-2.032-0.902-2.032-2.008V45.76 c0-1.107,0.91-2.008,2.032-2.008h5.104c1.123,0,2.031,0.9,2.031,2.008v5.154c0,1.105-0.908,2.008-2.031,2.008H27.34z" fill="#020202" fill-opacity="0.5" stroke-opacity="0.5"/>
<linearGradient gradientUnits="userSpaceOnUse" id="SVGID_10" x1="29.89" x2="29.89" y1="44.43" y2="52.23">
<stop offset="0" stop-color="#A6A8AB"/>
<stop offset="0.7" stop-color="#58595B"/>
<stop offset="1" stop-color="#808184"/>
</linearGradient>
<path d="M33.771,50.914c0,0.718-0.594,1.3-1.319,1.3h-5.12c-0.728,0-1.32-0.582-1.32-1.3V45.76 c0-0.716,0.592-1.298,1.32-1.298h5.12c0.726,0,1.319,0.582,1.319,1.298V50.914z" fill="url(#SVGID_10)"/>
<path d="M28.836,50.805c-0.782,0-1.414-0.633-1.414-1.41v-2.119 c0-0.775,0.632-1.407,1.414-1.407h2.112c0.78,0,1.411,0.632,1.411,1.407v2.119c0,0.777-0.631,1.41-1.411,1.41H28.836z" fill="#020202" fill-opacity="0.2" stroke-opacity="0.2"/>
<linearGradient gradientUnits="userSpaceOnUse" id="SVGID_11" x1="29.89" x2="29.89" y1="46.56" y2="50.1">
<stop offset="0" stop-color="#D1D7D9"/>
<stop offset="0.07" stop-color="#D1D7D9"/>
<stop offset="0.26" stop-color="#BDC2C4"/>
<stop offset="0.66" stop-color="#949DA1"/>
<stop offset="0.96" stop-color="#ADB3B5"/>
<stop offset="1" stop-color="#595C5E"/>
</linearGradient>
<path d="M28.836,50.098c-0.392,0-0.708-0.313-0.708-0.703v-2.119c0-0.385,0.314-0.703,0.708-0.703 h2.112c0.39,0,0.708,0.316,0.708,0.703v2.119c0,0.388-0.316,0.703-0.708,0.703H28.836z" fill="url(#SVGID_11)"/>
<linearGradient gradientUnits="userSpaceOnUse" id="SVGID_12" x1="18.66" x2="18.66" y1="43.71" y2="52.23">
<stop offset="0" stop-color="#B6BBBD"/>
<stop offset="1" stop-color="#F0FBFF"/>
</linearGradient>
<path d="M18.256,52.214c-1.496,0-2.714-1.216-2.714-2.712 v-3.036c0-1.498,1.218-2.714,2.714-2.714h0.81c1.498,0,2.714,1.216,2.714,2.714v3.036c0,1.496-1.216,2.712-2.714,2.712H18.256z" fill="url(#SVGID_12)" fill-opacity="0.4" stroke-opacity="0.4"/>
<linearGradient gradientUnits="userSpaceOnUse" id="SVGID_13" x1="18.66" x2="18.66" y1="44.43" y2="51.52">
<stop offset="0" stop-color="#231F20"/>
<stop offset="1" stop-color="#6D6E70"/>
</linearGradient>
<path d="M18.256,51.51c-1.106,0-2.008-0.9-2.008-2.008v-3.036 c0-1.11,0.902-2.006,2.008-2.006h0.81c1.11,0,2.01,0.896,2.01,2.006v3.036c0,1.107-0.9,2.008-2.01,2.008H18.256z" fill="url(#SVGID_13)" fill-opacity="0.7" stroke-opacity="0.7"/>
<linearGradient gradientUnits="userSpaceOnUse" id="SVGID_14" x1="18.66" x2="18.66" y1="45.14" y2="50.82">
<stop offset="0" stop-color="#C6FF45"/>
<stop offset="0.73" stop-color="#66A00E"/>
<stop offset="1" stop-color="#387300"/>
</linearGradient>
<path d="M20.37,49.502c0,0.721-0.582,1.303-1.302,1.303h-0.812c-0.718,0-1.302-0.582-1.302-1.303 v-3.036c0-0.72,0.584-1.302,1.302-1.302h0.81c0.72,0,1.302,0.582,1.302,1.302v3.036H20.37z" fill="url(#SVGID_14)"/>
<path d="M40.322,52.214c-1.494,0-2.711-1.216-2.711-2.712 v-3.036c0-1.498,1.217-2.714,2.711-2.714h0.812c1.5,0,2.714,1.216,2.714,2.714v3.036c0,1.496-1.214,2.712-2.714,2.712H40.322z" fill="url(#SVGID_12)" fill-opacity="0.4" stroke-opacity="0.4"/>
<path d="M40.322,51.51c-1.108,0-2.008-0.9-2.008-2.008v-3.036 c0-1.11,0.899-2.006,2.008-2.006h0.812c1.11,0,2.009,0.896,2.009,2.006v3.036c0,1.107-0.898,2.008-2.009,2.008H40.322z" fill="url(#SVGID_13)" fill-opacity="0.7" stroke-opacity="0.7"/>
<linearGradient gradientUnits="userSpaceOnUse" id="SVGID_17" x1="40.73" x2="40.73" y1="45.14" y2="50.82">
<stop offset="0" stop-color="#FFC142"/>
<stop offset="0.75" stop-color="#CF4E18"/>
<stop offset="1" stop-color="#B52100"/>
</linearGradient>
<path d="M42.438,49.502c0,0.721-0.582,1.303-1.301,1.303h-0.813c-0.717,0-1.301-0.582-1.301-1.303 v-3.036c0-0.72,0.584-1.302,1.301-1.302h0.813c0.719,0,1.301,0.582,1.301,1.302V49.502z" fill="url(#SVGID_17)"/>
<rect fill="none" height="60" width="60"/>
</g>
<g transform="matrix(1 0 0 1 30 30)">
<linearGradient gradientTransform="matrix(1 0 0 -1 8.3999 5.04)" gradientUnits="userSpaceOnUse" id="SVGID_1_" x1="-1.0313" x2="14.444" y1="-3.8467" y2="-3.8467">
<stop offset="0" style="stop-color:#8C8C8C"/>
<stop offset="0.5333" style="stop-color:#B3B3B3"/>
<stop offset="1" style="stop-color:#808080"/>
</linearGradient>
<path d="M15.106,3.081c-4.303,0-7.794,3.46-7.854,7.749v2.881h2.657V10.83  c0.061-2.818,2.366-5.092,5.198-5.092c2.831,0,5.136,2.273,5.198,5.092v3.863h2.655V10.83C22.898,6.541,19.408,3.081,15.106,3.081z" fill="url(#SVGID_1_)"/>
<linearGradient gradientTransform="matrix(1 0 0 -1 8.3999 5.04)" gradientUnits="userSpaceOnUse" id="SVGID_2_" x1="-0.5474" x2="13.9592" y1="-4.0928" y2="-4.0928">
<stop offset="0" style="stop-color:#CCCCCC"/>
<stop offset="0.5152" style="stop-color:#FFFFFF"/>
<stop offset="1" style="stop-color:#CCCCCC"/>
</linearGradient>
<path d="M20.793,14.203V10.83c-0.066-3.084-2.617-5.582-5.687-5.582c-3.072,0-5.623,2.498-5.689,5.572v3.873  H7.743V10.83c0.057-4,3.359-7.258,7.363-7.258c4.003,0,7.304,3.258,7.361,7.265v3.366H20.793z" fill="url(#SVGID_2_)"/>
<linearGradient gradientTransform="matrix(1 0 0 -1 8.3999 5.04)" gradientUnits="userSpaceOnUse" id="SVGID_3_" x1="-0.2461" x2="13.6586" y1="-4.0938" y2="-4.0938">
<stop offset="0" style="stop-color:#B4B4B4"/>
<stop offset="0.5" style="stop-color:#E6E6E6"/>
<stop offset="1" style="stop-color:#BEBEBE"/>
</linearGradient>
<path d="M8.049,14.388V10.83c0.054-3.832,3.22-6.951,7.057-6.951c3.835,0,7.001,3.123,7.056,6.962v3.056H21.1  V10.83c-0.07-3.25-2.76-5.889-5.994-5.889c-3.236,0-5.925,2.634-5.995,5.872v3.574L8.049,14.388L8.049,14.388z" fill="url(#SVGID_3_)"/>
<g>
<rect fill="none" height="30" width="30"/>
</g>
<linearGradient gradientTransform="matrix(1 0 0 -1 8.3999 5.04)" gradientUnits="userSpaceOnUse" id="SVGID_4_" x1="-3.1958" x2="16.3945" y1="-15.3169" y2="-15.3169">
<stop offset="0" style="stop-color:#ED8C0D"/>
<stop offset="0.24" style="stop-color:#FFE692"/>
<stop offset="0.75" style="stop-color:#ED8C0D"/>
<stop offset="0.8667" style="stop-color:#FFB81F"/>
<stop offset="1" style="stop-color:#ED8C0D"/>
</linearGradient>
<path d="M24.795,26.633c0,0.338-0.273,0.612-0.611,0.612H5.816c-0.338,0-0.612-0.274-0.612-0.612V14.082  c0-0.338,0.274-0.613,0.612-0.613h18.368c0.338,0,0.61,0.275,0.61,0.613L24.795,26.633L24.795,26.633z" fill="url(#SVGID_4_)"/>
<path d="M24.184,13.469H5.816c-0.338,0-0.612,0.275-0.612,0.613v0.611  c0-0.338,0.274-0.611,0.612-0.611h18.368c0.338,0,0.61,0.273,0.61,0.611v-0.611C24.795,13.744,24.521,13.469,24.184,13.469z" fill="#FFFFFF" fill-opacity="0.4" stroke-opacity="0.4"/>
<rect fill="#EE8F11" fill-opacity="0.5" height="2.144" stroke-opacity="0.5" width="19.591" x="5.204" y="16.225"/>
<rect fill-opacity="0.25" height="0.308" stroke-opacity="0.25" width="19.591" x="5.204" y="16.225"/>
<path d="M24.184,27.245H5.816c-0.338,0-0.612-0.274-0.612-0.612v-0.611  c0,0.338,0.274,0.611,0.612,0.611h18.368c0.338,0,0.61-0.273,0.61-0.611v0.611C24.795,26.971,24.521,27.245,24.184,27.245z" fill-opacity="0.25" stroke-opacity="0.25"/>
<rect fill="#FEE38E" fill-opacity="0.25" height="0.307" stroke-opacity="0.25" width="19.591" x="5.204" y="18.367"/>
</g>
</svg>
